<?xml version="1.0" encoding="UTF-8"?>
<svg id="Layer_1" xmlns="http://www.w3.org/2000/svg" xmlns:xlink="http://www.w3.org/1999/xlink" version="1.1" viewBox="0 0 160 160">
  <!-- Generator: Adobe Illustrator 29.7.1, SVG Export Plug-In . SVG Version: 2.1.1 Build 8)  -->
  <defs>
    <style>
      .st0 {
        fill: url(#linear-gradient);
      }

      .st1 {
        fill: #65a74f;
      }
    </style>
    <linearGradient id="linear-gradient" x1="64.6019482" y1="154.3128179" x2="104.0826914" y2="6.9686781" gradientTransform="translate(-21.0795209 138.3051248) rotate(13.7373333) scale(1 -1)" gradientUnits="userSpaceOnUse">
      <stop offset=".35" stop-color="#65a74f"/>
      <stop offset="1" stop-color="#27411f"/>
    </linearGradient>
  </defs>
  <path class="st0" d="M124.6514635,92.2509697l-60.8892827,63.6343713c-1.3808612,1.4431067-3.8058062.8512069-4.3651533-1.0662061-4.7920816-16.4271492-21.7772531-74.6520311-24.6651909-84.5521952-.2595805-.889879-.0240991-1.8485645.6167559-2.5183132L96.2383379,4.1146442c1.3808402-1.4430962,3.8058062-.8511754,4.3651323,1.0662377,4.7919344,16.4271071,21.7766222,74.6516946,24.6646862,84.5517746.2595805.889879.0241412,1.8485855-.6167349,2.5183342l.0000421-.000021Z"/>
  <path class="st1" d="M66.5486963,5.7986156l.8416808,5.7934557c.0722763.4975538.3583321.9386975.7830944,1.2077095l4.9458658,3.1322303c1.3510423.855623.9085526,2.9302479-.6740176,3.1601671l-5.7934557.8416808c-.4975643.0722868-.9387081.3583321-1.2077095.7830944l-3.1322303,4.9458763c-.855623,1.3510423-2.9302479.9085526-3.1601566-.6740176l-.8416808-5.7934557c-.0722763-.4975538-.3583321-.9386975-.7830944-1.2077095l-4.9458658-3.1322303c-1.3510423-.855623-.9085526-2.9302479.6740176-3.1601671l5.7934557-.8416808c.4975643-.0722868.9387081-.3583321,1.2077095-.7830944l3.1322303-4.9458763c.855623-1.3510423,2.9302479-.9085526,3.1601776.6740176h-.000021Z"/>
</svg>